<svg aria-hidden="true" style="width:0;height:0;position:absolute;overflow:hidden" xmlns="http://www.w3.org/2000/svg"><defs><symbol id="icon-close-m" viewBox="0 0 32 32"><path d="m17.253 16 7.369-7.369a.885.885 0 0 0-.047-1.206.893.893 0 0 0-1.207-.047l-7.369 7.369L8.63 7.369a.892.892 0 0 0-1.262 1.262L14.746 16l-7.378 7.369a.891.891 0 0 0-.05 1.304.906.906 0 0 0 .663.26.88.88 0 0 0 .641-.31L16 17.254l7.369 7.369a.886.886 0 0 0 1.207-.047.893.893 0 0 0 .047-1.207L17.254 16z"/></symbol><symbol id="icon-close-s" viewBox="0 0 32 32"><path d="m17.253 16 7.369-7.369a.886.886 0 0 0-.047-1.207.89.89 0 0 0-1.206-.047L16 14.746 8.631 7.368A.892.892 0 0 0 7.369 8.63l7.378 7.369-7.378 7.369a.891.891 0 0 0-.05 1.304.89.89 0 0 0 1.304-.051l7.378-7.369 7.369 7.369a.885.885 0 0 0 1.206-.047.89.89 0 0 0 .047-1.206l-7.369-7.369z"/></symbol><symbol id="icon-about" viewBox="0 0 32 32"><path d="M8.51 3.254C8.184 3.63 8 4.14 8 4.671s.183 1.041.51 1.417l8.62 9.924-8.62 9.924c-.317.378-.493.884-.489 1.41s.187 1.029.51 1.4.76.583 1.216.587c.457.005.896-.198 1.225-.563l9.851-11.341c.326-.376.51-.886.51-1.417s-.183-1.041-.51-1.417L10.972 3.254c-.327-.376-.769-.587-1.231-.587s-.905.211-1.231.587z"/></symbol></defs></svg>