<svg aria-hidden="true" style="width:0;height:0;position:absolute;overflow:hidden" xmlns="http://www.w3.org/2000/svg"><defs><symbol id="icon_close" viewBox="0 0 32 32"><path d="M23.884 6.706 16 14.59 8.116 6.706a.995.995 0 0 0-1.38.031 1 1 0 0 0-.031 1.38l7.88 7.884-7.882 7.882a1.002 1.002 0 0 0-.018 1.427.998.998 0 0 0 1.427-.015l7.886-7.882 7.884 7.884a1 1 0 0 0 1.38-.03 1 1 0 0 0 .03-1.38l-7.884-7.884 7.884-7.886a1.002 1.002 0 0 0 .018-1.427.998.998 0 0 0-1.427.015v.002z"/></symbol><symbol id="icon_open" viewBox="0 0 32 32"><path d="M26.733 14H5.266c-.7 0-1.267.425-1.267.95v.1c0 .525.567.95 1.267.95h21.467c.7 0 1.267-.425 1.267-.95v-.1c0-.525-.567-.95-1.267-.95zM26.733 20H5.266c-.7 0-1.267.425-1.267.95v.1c0 .525.567.95 1.267.95h21.467c.7 0 1.267-.425 1.267-.95v-.1c0-.525-.567-.95-1.267-.95zM26.733 8H5.266c-.7 0-1.267.425-1.267.95v.1c0 .525.567.95 1.267.95h21.467c.7 0 1.267-.425 1.267-.95v-.1c0-.525-.567-.95-1.267-.95z"/></symbol><symbol id="arrow-right-bold" viewBox="0 0 32 32"><path d="M10.586 3.272a2 2 0 0 0 0 2.828l9.9 9.9-9.9 9.9a1.998 1.998 0 0 0 .025 2.804 2.001 2.001 0 0 0 2.804.025l11.314-11.314a2 2 0 0 0 0-2.828L13.415 3.273a2 2 0 0 0-2.828 0z"/></symbol><symbol id="close_modal" viewBox="0 0 32 32"><path d="M18.148 16 30.78 3.368a1.521 1.521 0 0 0-.08-2.069 1.525 1.525 0 0 0-2.068-.08L16 13.851 3.368 1.203a1.53 1.53 0 0 0-2.164 2.164l12.648 12.632L1.204 28.631a1.513 1.513 0 0 0-.428 1.714c.077.196.193.373.341.522s.326.265.522.341a1.522 1.522 0 0 0 1.714-.428l12.648-12.632L28.633 30.78a1.52 1.52 0 0 0 2.068-.08 1.523 1.523 0 0 0 .08-2.069L18.149 15.999z"/></symbol></defs></svg>